<svg class="svgicon" id="svg245" preserveAspectRatio="xMidYMid meet" xmlns="http://www.w3.org/2000/svg" viewBox="0 0 60 60"><rect x="0" y="0" width="60" height="60" style="fill: transparent" rx="50%" ry="50%"></rect><g transform="scale(0.6) translate(20, 20)"><path fill="rgb(227, 24, 54)" d="M30,60C13.457,60,0,46.543,0,30C0,13.458,13.457,0,30,0s30,13.458,30,30C60,46.543,46.543,60,30,60z M30,2.936C15.076,2.936,2.936,15.077,2.936,30c0,14.924,12.141,27.064,27.064,27.064S57.064,44.924,57.064,30 C57.064,15.077,44.924,2.936,30,2.936z"></path><path fill="rgb(227, 24, 54)" d="M26.946,43.892c0-1.703,1.183-2.935,2.791-2.935c1.704,0,2.792,1.231,2.792,2.935 c0,1.655-1.088,2.933-2.792,2.933C28.081,46.824,26.946,45.547,26.946,43.892z M28.129,37.125l-0.662-22.71h4.542l-0.662,22.71 H28.129z"></path></g></svg>