<svg class="svgicon" id="svg32" preserveAspectRatio="xMidYMid meet"
     viewBox="0 0 60 60" xmlns="http://www.w3.org/2000/svg">
    <rect height="60" rx="50%" ry="50%" style="fill: transparent" width="60" x="0"
          y="0"></rect>
    <g transform="scale(0.6) translate(20, 20)">
        <path d="M30.001,0C13.459,0,0,13.458,0,30s13.459,30,30.001,30S60,46.542,60,30S46.543,0,30.001,0z M30.001,56.846 C15.197,56.846,3.154,44.803,3.154,30S15.197,3.154,30.001,3.154c14.802,0,26.845,12.043,26.845,26.846 S44.803,56.846,30.001,56.846z"
              fill="rgb(227, 24, 54)"></path>
        <path d="M49.52,23.993c-0.141-0.434-0.545-0.727-1-0.727H35.137l-4.136-12.729c-0.141-0.433-0.545-0.727-1-0.727 c-0.456,0-0.859,0.294-1.001,0.727l-4.135,12.729H11.481c-0.455,0-0.859,0.293-1,0.727c-0.141,0.433,0.013,0.907,0.382,1.176 l10.828,7.865l-4.136,12.729c-0.141,0.434,0.013,0.908,0.382,1.176c0.369,0.269,0.867,0.269,1.236,0l10.827-7.866l10.827,7.866 c0.184,0.134,0.4,0.201,0.617,0.201s0.434-0.067,0.619-0.201c0.368-0.268,0.521-0.742,0.381-1.176L38.31,33.034l10.827-7.865 C49.506,24.9,49.66,24.426,49.52,23.993z M36.455,31.782c-0.368,0.269-0.522,0.742-0.382,1.176l3.372,10.377l-8.826-6.413 c-0.369-0.268-0.868-0.268-1.236,0l-8.828,6.414l3.372-10.378c0.142-0.434-0.013-0.907-0.382-1.176l-8.828-6.413h10.912 c0.455,0,0.859-0.293,1-0.727l3.372-10.377l3.372,10.377c0.141,0.434,0.544,0.727,1,0.727h10.91L36.455,31.782z"
              fill="rgb(227, 24, 54)"></path>
    </g>
</svg>